<?xml version="1.0" encoding="UTF-8" standalone="no"?>
<!DOCTYPE svg PUBLIC "-//W3C//DTD SVG 1.1//EN" "http://www.w3.org/Graphics/SVG/1.1/DTD/svg11.dtd">
<svg width="100%" height="100%" viewBox="0 0 100 100" version="1.1" xmlns="http://www.w3.org/2000/svg" xmlns:xlink="http://www.w3.org/1999/xlink" xml:space="preserve" xmlns:serif="http://www.serif.com/" style="fill-rule:evenodd;clip-rule:evenodd;stroke-linejoin:round;stroke-miterlimit:2;">
    <g id="settings" transform="matrix(0.739067,0,0,0.739067,-60.558357,-106.274148)">
        <path d="M141.263,278.756C139.034,278.044 137.244,276.511 136.161,274.388C135.852,273.784 135.309,271.376 134.834,268.508C134.391,265.837 133.976,263.413 133.91,263.122C133.825,262.744 133.277,262.414 131.994,261.965C131.005,261.619 128.988,260.801 127.51,260.146L124.823,258.956L120.695,261.914C115.542,265.608 114.678,266.02 112.073,266.025C108.72,266.031 107.81,265.447 101.868,259.469C96.14,253.706 95.609,252.911 95.448,249.847C95.302,247.074 95.777,245.988 99.242,241.162C100.914,238.833 102.282,236.846 102.282,236.745C102.283,236.643 101.855,235.631 101.332,234.496C100.809,233.36 99.97,231.363 99.467,230.058C98.964,228.753 98.517,227.65 98.473,227.606C98.429,227.562 96.031,227.114 93.143,226.611C87.263,225.585 85.741,225.018 84.153,223.261C82.126,221.017 82.053,220.649 81.961,212.244C81.867,203.569 81.997,202.758 83.851,200.484C85.583,198.359 86.955,197.797 92.758,196.833C95.45,196.386 97.823,195.93 98.031,195.82C98.239,195.71 98.675,194.831 99,193.868C99.325,192.905 100.144,190.876 100.821,189.359L102.052,186.602L99.018,182.34C95.471,177.357 95,176.321 95.026,173.561C95.056,170.42 95.624,169.556 101.582,163.607C104.503,160.691 107.114,158.312 107.748,157.992C109.959,156.874 113.313,156.823 115.37,157.877C115.812,158.104 117.997,159.602 120.225,161.206L124.277,164.123L126.178,163.252C127.224,162.773 129.257,161.923 130.697,161.363C132.136,160.804 133.372,160.287 133.444,160.215C133.516,160.143 133.974,157.75 134.461,154.897C134.949,152.045 135.574,149.199 135.851,148.573C136.583,146.919 138.099,145.371 139.811,144.53L141.309,143.795L157.449,143.795L158.946,144.53C160.658,145.371 162.175,146.919 162.905,148.569C163.181,149.193 163.769,151.886 164.212,154.554C164.655,157.223 165.103,159.568 165.208,159.766C165.313,159.965 166.468,160.51 167.774,160.977C169.08,161.445 171.186,162.315 172.455,162.91L174.76,163.993L178.672,161.192C184.133,157.282 184.676,157.024 187.467,157.024C190.884,157.024 191.408,157.362 197.693,163.628C202.522,168.442 203.066,169.077 203.603,170.518C204.329,172.468 204.284,175.485 203.504,177.086C203.233,177.642 201.719,179.896 200.14,182.094C198.561,184.292 197.269,186.251 197.269,186.447C197.269,186.643 197.675,187.61 198.172,188.597C198.669,189.584 199.462,191.497 199.934,192.849C200.541,194.586 200.954,195.375 201.345,195.543C201.65,195.673 204.031,196.134 206.637,196.566C211.982,197.453 213.559,198.052 215.134,199.796C215.673,200.392 216.368,201.431 216.679,202.103C217.218,203.268 217.245,203.711 217.245,211.396C217.245,219.081 217.218,219.524 216.679,220.689C216.368,221.361 215.673,222.4 215.134,222.996C213.547,224.753 212.053,225.306 206.19,226.307C203.311,226.798 200.919,227.246 200.875,227.302C200.831,227.358 200.374,228.534 199.86,229.917C199.347,231.299 198.505,233.336 197.989,234.443L197.052,236.456L200.204,240.888C203.748,245.871 204.302,247.156 204.083,249.879C203.859,252.668 203.056,253.831 197.568,259.32C191.557,265.331 190.872,265.763 187.347,265.764C184.463,265.764 184.401,265.735 178.782,261.714L174.714,258.804L172.299,259.921C170.971,260.536 168.897,261.388 167.69,261.815C166.07,262.389 165.465,262.731 165.38,263.122C165.316,263.413 164.902,265.794 164.461,268.414C163.557,273.777 162.968,275.329 161.244,276.887C158.985,278.927 158.66,278.99 150.04,279.053C144.244,279.095 142.097,279.023 141.263,278.756L141.263,278.756ZM156.248,270.861C156.382,270.534 156.925,267.65 157.456,264.454C157.987,261.257 158.577,258.34 158.768,257.971C159.378,256.79 160.073,256.392 163.426,255.304C165.232,254.718 168.384,253.41 170.432,252.396C172.513,251.367 174.501,250.554 174.94,250.554C176.083,250.554 177.034,251.113 182.259,254.858C184.845,256.711 187.169,258.227 187.422,258.227C188.013,258.227 196.475,249.768 196.475,249.177C196.475,248.931 194.867,246.467 192.901,243.701C189.237,238.546 188.802,237.792 188.802,236.606C188.802,236.23 189.629,234.243 190.639,232.192C191.649,230.14 192.964,226.961 193.561,225.127C195.153,220.231 194.798,220.45 203.354,219.077C206.192,218.622 208.781,218.139 209.109,218.003C209.703,217.758 209.704,217.748 209.704,211.29L209.704,204.824L208.976,204.678C208.576,204.598 205.689,204.098 202.56,203.567C199.432,203.037 196.574,202.45 196.21,202.264C195.04,201.666 194.671,201.001 193.441,197.283C192.778,195.277 191.463,192.109 190.518,190.243C189.574,188.377 188.802,186.546 188.802,186.176C188.802,184.993 189.259,184.206 192.904,179.115C194.868,176.372 196.475,173.91 196.475,173.643C196.475,173.043 188.039,164.565 187.443,164.565C187.207,164.565 184.885,166.095 182.281,167.966C176.941,171.802 176.203,172.238 175.038,172.238C174.553,172.238 172.662,171.479 170.461,170.403C168.397,169.394 165.519,168.193 164.063,167.733C160.304,166.547 159.473,166.158 158.861,165.298C158.463,164.739 158.048,162.955 157.287,158.533C156.719,155.229 156.194,152.258 156.119,151.931L155.983,151.336L149.522,151.336C145.761,151.336 142.996,151.44 142.906,151.585C142.821,151.722 142.27,154.669 141.681,158.133C140.954,162.408 140.445,164.699 140.095,165.264C139.49,166.243 138.843,166.57 134.959,167.859C133.358,168.39 130.56,169.573 128.741,170.488C126.922,171.402 125.112,172.231 124.717,172.329C123.492,172.633 122.166,171.927 116.939,168.184C114.159,166.194 111.785,164.565 111.665,164.565C111.292,164.565 102.548,173.387 102.548,173.764C102.548,173.959 104.176,176.405 106.166,179.198C108.156,181.991 109.943,184.728 110.137,185.279C110.593,186.575 110.447,187.097 108.609,190.759C107.769,192.432 106.532,195.468 105.859,197.505C104.581,201.373 103.906,202.465 102.585,202.798C102.201,202.895 99.239,203.432 96.003,203.992C92.767,204.552 89.999,205.085 89.851,205.176C89.682,205.281 89.583,207.684 89.583,211.682C89.583,218.007 89.585,218.023 90.178,218.271C90.506,218.408 93.56,218.992 96.966,219.567C104.595,220.858 104.309,220.663 105.973,225.684C106.576,227.503 107.909,230.679 108.936,232.742C110.624,236.132 110.786,236.595 110.622,237.561C110.489,238.348 109.539,239.892 107.024,243.411C105.144,246.04 103.411,248.49 103.172,248.854L102.737,249.518L107.196,254.005C109.649,256.473 111.851,258.492 112.089,258.492C112.328,258.492 114.297,257.221 116.465,255.669C122.521,251.331 123.378,250.819 124.57,250.819C125.308,250.819 126.612,251.31 129.093,252.521C131.01,253.457 134.056,254.706 135.862,255.296C139.235,256.399 139.909,256.789 140.535,258.001C140.735,258.386 141.324,261.304 141.844,264.484C142.365,267.664 142.901,270.534 143.037,270.861C143.282,271.455 143.296,271.456 149.644,271.456C155.992,271.456 156.005,271.455 156.248,270.861ZM144.439,240.125C132.125,237.782 122.576,227.902 120.791,215.657C120.393,212.929 120.604,207.204 121.192,204.781C123.907,193.587 132.635,185.124 143.853,182.807C146.214,182.32 147.178,182.26 150.702,182.379C153.66,182.479 155.365,182.67 156.821,183.064C167.356,185.917 175.123,193.684 177.976,204.219C178.37,205.674 178.561,207.38 178.661,210.338C178.78,213.862 178.72,214.825 178.232,217.187C175.916,228.406 167.496,237.091 156.258,239.853C153.875,240.439 146.929,240.599 144.439,240.125ZM154.803,232.28C159.102,231.257 163.575,228.459 166.31,225.082C174.375,215.121 172.238,200.639 161.643,193.465C154.039,188.315 143.937,188.656 136.504,194.314C132.854,197.092 129.91,201.603 128.723,206.237C127.976,209.155 127.976,213.641 128.724,216.555C131.7,228.149 143.149,235.053 154.803,232.28L154.803,232.28Z" style="fill-rule:nonzero;"/>
    </g>
</svg>
